<?xml version="1.0" standalone="no"?>
<!DOCTYPE svg PUBLIC "-//W3C//DTD SVG 20010904//EN"
 "http://www.w3.org/TR/2001/REC-SVG-20010904/DTD/svg10.dtd">
<svg version="1.0" xmlns="http://www.w3.org/2000/svg"
 width="1024.000000pt" height="1024.000000pt" viewBox="0 0 1024.000000 1024.000000"
 preserveAspectRatio="xMidYMid meet">

<g transform="translate(0.000000,1024.000000) scale(0.100000,-0.100000)"
fill="#000000" stroke="none">
<path d="M5035 9064 c-267 -27 -418 -56 -608 -118 -776 -254 -1377 -887 -1590
-1676 -109 -401 -111 -825 -7 -1240 148 -588 542 -1127 1064 -1454 714 -447
1610 -493 2361 -121 267 132 473 282 676 493 361 374 582 824 660 1344 25 166
30 473 10 623 -51 387 -186 756 -389 1060 -111 167 -190 261 -333 400 -202
197 -379 321 -634 446 -243 119 -498 195 -765 229 -92 11 -380 21 -445 14z
m290 -545 c-22 -110 -77 -263 -146 -408 -32 -68 -59 -127 -59 -130 0 -4 46 1
103 11 121 21 537 26 537 7 0 -6 -40 -61 -88 -122 -245 -311 -402 -578 -558
-952 -72 -171 -80 -171 -70 -7 17 263 83 516 192 735 25 49 39 87 32 87 -16 0
-270 -52 -478 -99 -96 -22 -176 -38 -177 -38 -4 5 276 404 412 587 146 197
234 325 286 419 23 42 24 43 27 17 2 -15 -4 -63 -13 -107z m-1089 -1291 c-134
-194 -200 -407 -200 -653 0 -260 72 -480 225 -685 364 -489 1044 -610 1552
-277 233 152 415 404 485 672 83 316 21 672 -161 938 l-47 67 0 181 0 180 45
-36 c58 -48 170 -181 227 -270 149 -230 215 -444 225 -720 9 -255 -31 -444
-141 -670 -73 -149 -157 -263 -284 -387 -200 -194 -424 -313 -703 -374 -120
-27 -428 -27 -549 0 -424 92 -759 341 -967 716 -47 85 -100 225 -128 340 -32
129 -45 377 -26 511 45 316 183 593 406 814 l80 80 3 -182 2 -181 -44 -64z"/>
</g>
</svg>
